
<svg xmlns="http://www.w3.org/2000/svg" style="display:none">
  <defs>
    
  </defs>

  
  <symbol id="sk-coin" viewBox="0 0 16 16">
    <rect x="5" y="1" width="6" height="1"></rect>
    <rect x="3" y="2" width="2" height="1"></rect><rect x="11" y="2" width="2" height="1"></rect>
    <rect x="2" y="3" width="1" height="10"></rect><rect x="13" y="3" width="1" height="10"></rect>
    <rect x="3" y="13" width="2" height="1"></rect><rect x="11" y="13" width="2" height="1"></rect>
    <rect x="5" y="14" width="6" height="1"></rect>
    <rect x="7" y="4" width="2" height="1"></rect>
    <rect x="6" y="5" width="1" height="1"></rect><rect x="9" y="5" width="1" height="1"></rect>
    <rect x="6" y="6" width="1" height="1"></rect>
    <rect x="6" y="7" width="3" height="1"></rect>
    <rect x="9" y="8" width="1" height="1"></rect>
    <rect x="6" y="9" width="1" height="1"></rect><rect x="9" y="9" width="1" height="1"></rect>
    <rect x="7" y="10" width="2" height="1"></rect>
  </symbol>

  
  <symbol id="sk-heart" viewBox="0 0 16 16">
    <rect x="2" y="3" width="3" height="1"></rect><rect x="11" y="3" width="3" height="1"></rect>
    <rect x="1" y="4" width="5" height="1"></rect><rect x="10" y="4" width="5" height="1"></rect>
    <rect x="1" y="5" width="14" height="1"></rect>
    <rect x="1" y="6" width="14" height="1"></rect>
    <rect x="2" y="7" width="12" height="1"></rect>
    <rect x="3" y="8" width="10" height="1"></rect>
    <rect x="4" y="9" width="8" height="1"></rect>
    <rect x="5" y="10" width="6" height="1"></rect>
    <rect x="6" y="11" width="4" height="1"></rect>
    <rect x="7" y="12" width="2" height="1"></rect>
  </symbol>

  
  <symbol id="sk-star" viewBox="0 0 16 16">
    <rect x="7" y="1" width="2" height="2"></rect>
    <rect x="6" y="3" width="4" height="2"></rect>
    <rect x="1" y="5" width="14" height="2"></rect>
    <rect x="3" y="7" width="10" height="2"></rect>
    <rect x="4" y="9" width="3" height="2"></rect><rect x="9" y="9" width="3" height="2"></rect>
    <rect x="3" y="11" width="3" height="2"></rect><rect x="10" y="11" width="3" height="2"></rect>
    <rect x="2" y="13" width="2" height="2"></rect><rect x="12" y="13" width="2" height="2"></rect>
  </symbol>

  
  <symbol id="sk-diamond" viewBox="0 0 16 16">
    <rect x="4" y="2" width="8" height="2"></rect>
    <rect x="2" y="4" width="12" height="2"></rect>
    <rect x="3" y="6" width="10" height="2"></rect>
    <rect x="4" y="8" width="8" height="2"></rect>
    <rect x="5" y="10" width="6" height="2"></rect>
    <rect x="6" y="12" width="4" height="2"></rect>
    <rect x="7" y="14" width="2" height="1"></rect>
  </symbol>

  
  <symbol id="sk-check" viewBox="0 0 16 16">
    <rect x="12" y="3" width="2" height="2"></rect>
    <rect x="10" y="5" width="2" height="2"></rect>
    <rect x="8" y="7" width="2" height="2"></rect>
    <rect x="6" y="9" width="2" height="2"></rect>
    <rect x="4" y="11" width="2" height="2"></rect>
    <rect x="2" y="9" width="2" height="2"></rect>
    <rect x="3" y="10" width="2" height="2"></rect>
  </symbol>

  
  <symbol id="sk-play" viewBox="0 0 16 16">
    <rect x="4" y="2" width="2" height="12"></rect>
    <rect x="6" y="3" width="2" height="10"></rect>
    <rect x="8" y="4" width="2" height="8"></rect>
    <rect x="10" y="5" width="2" height="6"></rect>
    <rect x="12" y="6" width="2" height="4"></rect>
    <rect x="14" y="7" width="1" height="2"></rect>
  </symbol>

  
  <symbol id="sk-pause" viewBox="0 0 16 16">
    <rect x="3" y="2" width="3" height="12"></rect>
    <rect x="10" y="2" width="3" height="12"></rect>
  </symbol>

  
  <symbol id="sk-sword" viewBox="0 0 16 16">
    <rect x="11" y="1" width="3" height="1"></rect>
    <rect x="10" y="2" width="3" height="2"></rect>
    <rect x="9" y="3" width="3" height="2"></rect>
    <rect x="8" y="4" width="3" height="2"></rect>
    <rect x="7" y="5" width="3" height="2"></rect>
    <rect x="6" y="6" width="3" height="2"></rect>
    <rect x="5" y="7" width="3" height="2"></rect>
    <rect x="4" y="8" width="3" height="2"></rect>
    <rect x="2" y="10" width="3" height="1"></rect>
    <rect x="3" y="9" width="2" height="3"></rect>
    <rect x="1" y="11" width="3" height="1"></rect>
    <rect x="5" y="11" width="2" height="2"></rect>
    <rect x="6" y="13" width="2" height="2"></rect>
  </symbol>

  
  <symbol id="sk-shield" viewBox="0 0 16 16">
    <rect x="3" y="2" width="10" height="1"></rect>
    <rect x="2" y="3" width="12" height="3"></rect>
    <rect x="3" y="6" width="10" height="3"></rect>
    <rect x="4" y="9" width="8" height="2"></rect>
    <rect x="5" y="11" width="6" height="2"></rect>
    <rect x="6" y="13" width="4" height="1"></rect>
    <rect x="7" y="14" width="2" height="1"></rect>
  </symbol>

  
  <symbol id="sk-key" viewBox="0 0 16 16">
    <rect x="2" y="5" width="3" height="3"></rect>
    <rect x="3" y="4" width="2" height="1"></rect><rect x="3" y="8" width="2" height="1"></rect>
    <rect x="5" y="6" width="9" height="2"></rect>
    <rect x="11" y="8" width="1" height="2"></rect>
    <rect x="13" y="8" width="1" height="3"></rect>
  </symbol>

  
  <symbol id="sk-chest" viewBox="0 0 16 16">
    <rect x="2" y="4" width="12" height="2"></rect>
    <rect x="2" y="6" width="1" height="8"></rect><rect x="13" y="6" width="1" height="8"></rect>
    <rect x="3" y="6" width="10" height="1"></rect>
    <rect x="3" y="13" width="10" height="1"></rect>
    <rect x="3" y="9" width="10" height="2"></rect>
    <rect x="7" y="8" width="2" height="4"></rect>
  </symbol>

  
  <symbol id="sk-wifi" viewBox="0 0 16 16">
    <rect x="3" y="3" width="10" height="1"></rect>
    <rect x="2" y="4" width="2" height="1"></rect><rect x="12" y="4" width="2" height="1"></rect>
    <rect x="5" y="6" width="6" height="1"></rect>
    <rect x="4" y="7" width="2" height="1"></rect><rect x="10" y="7" width="2" height="1"></rect>
    <rect x="7" y="9" width="2" height="1"></rect>
    <rect x="7" y="11" width="2" height="2"></rect>
  </symbol>

  
  <symbol id="sk-signal" viewBox="0 0 16 16">
    <rect x="2" y="11" width="2" height="3"></rect>
    <rect x="5" y="8" width="2" height="6"></rect>
    <rect x="8" y="5" width="2" height="9"></rect>
    <rect x="11" y="2" width="2" height="12"></rect>
  </symbol>

  
  <symbol id="sk-chip" viewBox="0 0 16 16">
    <rect x="4" y="1" width="1" height="2"></rect><rect x="7" y="1" width="1" height="2"></rect>
    <rect x="9" y="1" width="1" height="2"></rect><rect x="12" y="1" width="1" height="2"></rect>
    <rect x="4" y="13" width="1" height="2"></rect><rect x="7" y="13" width="1" height="2"></rect>
    <rect x="9" y="13" width="1" height="2"></rect><rect x="12" y="13" width="1" height="2"></rect>
    <rect x="1" y="4" width="2" height="1"></rect><rect x="1" y="7" width="2" height="1"></rect>
    <rect x="1" y="9" width="2" height="1"></rect><rect x="1" y="12" width="2" height="1"></rect>
    <rect x="13" y="4" width="2" height="1"></rect><rect x="13" y="7" width="2" height="1"></rect>
    <rect x="13" y="9" width="2" height="1"></rect><rect x="13" y="12" width="2" height="1"></rect>
    <rect x="3" y="3" width="10" height="10"></rect>
    <rect x="5" y="5" width="6" height="6"></rect>
  </symbol>

  
  <symbol id="sk-power" viewBox="0 0 16 16">
    <rect x="7" y="2" width="2" height="6"></rect>
    <rect x="5" y="4" width="1" height="2"></rect><rect x="10" y="4" width="1" height="2"></rect>
    <rect x="3" y="6" width="1" height="3"></rect><rect x="12" y="6" width="1" height="3"></rect>
    <rect x="2" y="9" width="2" height="2"></rect><rect x="12" y="9" width="2" height="2"></rect>
    <rect x="3" y="11" width="2" height="2"></rect><rect x="11" y="11" width="2" height="2"></rect>
    <rect x="5" y="13" width="6" height="1"></rect>
  </symbol>

  
  <symbol id="sk-chevron-right" viewBox="0 0 16 16">
    <rect x="5" y="2" width="2" height="2"></rect>
    <rect x="7" y="4" width="2" height="2"></rect>
    <rect x="9" y="6" width="2" height="4"></rect>
    <rect x="7" y="10" width="2" height="2"></rect>
    <rect x="5" y="12" width="2" height="2"></rect>
  </symbol>

  
  <symbol id="sk-cursor" viewBox="0 0 16 16">
    <rect x="3" y="2" width="1" height="11"></rect>
    <rect x="4" y="3" width="1" height="9"></rect>
    <rect x="5" y="4" width="1" height="7"></rect>
    <rect x="6" y="5" width="1" height="5"></rect>
    <rect x="7" y="6" width="1" height="3"></rect>
    <rect x="8" y="7" width="2" height="2"></rect>
    <rect x="6" y="11" width="2" height="3"></rect>
    <rect x="8" y="11" width="2" height="3"></rect>
  </symbol>

  
  <symbol id="sk-ghost" viewBox="0 0 16 16">
    <rect x="4" y="1" width="8" height="1"></rect>
    <rect x="3" y="2" width="10" height="1"></rect>
    <rect x="2" y="3" width="12" height="11"></rect>
    <rect x="2" y="14" width="2" height="1"></rect><rect x="6" y="14" width="2" height="1"></rect>
    <rect x="9" y="14" width="2" height="1"></rect><rect x="12" y="14" width="2" height="1"></rect>
  </symbol>

  
  <symbol id="sk-trophy" viewBox="0 0 16 16">
    <rect x="3" y="2" width="10" height="1"></rect>
    <rect x="3" y="3" width="2" height="6"></rect><rect x="11" y="3" width="2" height="6"></rect>
    <rect x="5" y="3" width="6" height="6"></rect>
    <rect x="1" y="3" width="2" height="3"></rect><rect x="13" y="3" width="2" height="3"></rect>
    <rect x="6" y="9" width="4" height="2"></rect>
    <rect x="4" y="11" width="8" height="1"></rect>
    <rect x="3" y="12" width="10" height="2"></rect>
  </symbol>
</svg>